<svg version="1.1" id="Layer_1" xmlns="http://www.w3.org/2000/svg"
				xmlns:xlink="http://www.w3.org/1999/xlink" x="0px" y="0px" viewBox="0 0 54 54"
				style="enable-background:new 0 0 54 54;" xml:space="preserve">
				<style type="text/css">
					.st0 {
						fill: #379504;
					}

					.st1 {
						fill: #FFFFFF;
					}
				</style>
				<circle class="st0" cx="27" cy="27" r="27" />
				<path class="st1" d="M8.2,25.1c-0.5,0-0.9-0.4-0.9-0.9l0,0v-1.8c0-0.5,0.4-0.9,0.9-0.9s0.9,0.4,0.9,0.9v1.8
	C9.1,24.7,8.7,25.1,8.2,25.1z" />
				<path class="st1" d="M12.9,25.1c-0.5,0-0.9-0.4-0.9-0.9l0,0v-4.1c0-0.5,0.4-0.9,0.9-0.9s0.9,0.4,0.9,0.9v4.1
	C13.8,24.7,13.4,25.1,12.9,25.1z" />
				<path class="st1" d="M17.6,26.8c-0.5,0-0.9-0.4-0.9-0.9V17c0-0.5,0.4-0.9,0.9-0.9s0.9,0.4,0.9,0.9v9C18.5,26.5,18.1,26.8,17.6,26.8z
	" />
				<path class="st1" d="M22.3,25.1c-0.5,0-0.9-0.4-0.9-0.9l0,0v-4.1c0-0.5,0.4-0.9,0.9-0.9s0.9,0.4,0.9,0.9v4.1
	C23.2,24.7,22.8,25.1,22.3,25.1L22.3,25.1z" />
				<path class="st1" d="M27,25.1c-0.5,0-0.9-0.4-0.9-0.9l0,0v-1.7c0-0.5,0.4-0.9,0.9-0.9s0.9,0.4,0.9,0.9v1.7
	C27.9,24.7,27.5,25.1,27,25.1L27,25.1z" />
				<path class="st1" d="M31.7,25.1c-0.5,0-0.9-0.4-0.9-0.9v-4.1c0-0.5,0.4-0.9,0.9-0.9s0.9,0.4,0.9,0.9v4.1
	C32.6,24.7,32.2,25.1,31.7,25.1L31.7,25.1z" />
				<path class="st1" d="M36.4,26.8c-0.5,0-0.9-0.4-0.9-0.9V17c0-0.5,0.4-0.9,0.9-0.9s0.9,0.4,0.9,0.9v9C37.2,26.5,36.8,26.8,36.4,26.8z
	" />
				<path class="st1" d="M41.1,25.1c-0.5,0-0.9-0.4-0.9-0.9l0,0v-4.1c0-0.5,0.4-0.9,0.9-0.9s0.9,0.4,0.9,0.9l0,0v4.1
	C42,24.7,41.6,25.1,41.1,25.1L41.1,25.1z" />
				<path class="st1" d="M45.8,25.1c-0.5,0-0.9-0.4-0.9-0.9l0,0v-1.8c0-0.5,0.4-0.9,0.9-0.9s0.9,0.4,0.9,0.9v1.8
	C46.6,24.7,46.3,25.1,45.8,25.1L45.8,25.1z" />
				<path class="st1" d="M27,41.3c-5.3,0.1-10.1-2.8-12.5-7.5c-0.2-0.4,0-1,0.5-1.2c0.4-0.2,0.9,0,1.1,0.4c2.1,4.1,6.3,6.6,10.9,6.5
	c4.6,0.1,8.8-2.4,10.9-6.5c0.2-0.4,0.7-0.6,1.2-0.4s0.6,0.7,0.4,1.2l0,0C37.1,38.5,32.3,41.4,27,41.3z" />
			</svg>